<?xml version="1.0" encoding="utf-8" standalone="no"?>
<!DOCTYPE svg PUBLIC "-//W3C//DTD SVG 1.1//EN"
  "http://www.w3.org/Graphics/SVG/1.1/DTD/svg11.dtd">
<svg xmlns:xlink="http://www.w3.org/1999/xlink" width="460.8pt" height="345.6pt" viewBox="0 0 460.8 345.6" xmlns="http://www.w3.org/2000/svg" version="1.1">
 <metadata>
  <rdf:RDF xmlns:dc="http://purl.org/dc/elements/1.1/" xmlns:cc="http://creativecommons.org/ns#" xmlns:rdf="http://www.w3.org/1999/02/22-rdf-syntax-ns#">
   <cc:Work>
    <dc:type rdf:resource="http://purl.org/dc/dcmitype/StillImage"/>
    <dc:date>2023-05-06T21:37:18.899228</dc:date>
    <dc:format>image/svg+xml</dc:format>
    <dc:creator>
     <cc:Agent>
      <dc:title>Matplotlib v3.5.2, https://matplotlib.org/</dc:title>
     </cc:Agent>
    </dc:creator>
   </cc:Work>
  </rdf:RDF>
 </metadata>
 <defs>
  <style type="text/css">*{stroke-linejoin: round; stroke-linecap: butt}</style>
 </defs>
 <g id="figure_1">
  <g id="patch_1">
   <path d="M 0 345.6 
L 460.8 345.6 
L 460.8 0 
L 0 0 
z
" style="fill: #ffffff"/>
  </g>
  <g id="axes_1">
   <g id="LineCollection_1">
    <path d="M 177.700054 103.191046 
L 150.837385 172.963891 
" clip-path="url(#pf6b9135b98)" style="fill: none; stroke: #000000"/>
    <path d="M 177.700054 103.191046 
L 118.841404 64.564364 
" clip-path="url(#pf6b9135b98)" style="fill: none; stroke: #000000"/>
    <path d="M 177.700054 103.191046 
L 92.377438 120.192227 
" clip-path="url(#pf6b9135b98)" style="fill: none; stroke: #000000"/>
    <path d="M 177.700054 103.191046 
L 195.990591 179.220326 
" clip-path="url(#pf6b9135b98)" style="fill: none; stroke: #000000"/>
    <path d="M 177.700054 103.191046 
L 231.375554 109.855509 
" clip-path="url(#pf6b9135b98)" style="fill: none; stroke: #000000"/>
    <path d="M 231.375554 109.855509 
L 195.990591 179.220326 
" clip-path="url(#pf6b9135b98)" style="fill: none; stroke: #000000"/>
    <path d="M 231.375554 109.855509 
L 256.493894 172.963891 
" clip-path="url(#pf6b9135b98)" style="fill: none; stroke: #000000"/>
    <path d="M 231.375554 109.855509 
L 314.455461 109.855509 
" clip-path="url(#pf6b9135b98)" style="fill: none; stroke: #000000"/>
    <path d="M 231.375554 109.855509 
L 383.730248 84.013714 
" clip-path="url(#pf6b9135b98)" style="fill: none; stroke: #000000"/>
    <path d="M 383.730248 84.013714 
L 365.090845 118.424104 
" clip-path="url(#pf6b9135b98)" style="fill: none; stroke: #000000"/>
    <path d="M 348.843664 229.135792 
L 328.50977 284.491636 
" clip-path="url(#pf6b9135b98)" style="fill: none; stroke: #000000"/>
    <path d="M 348.843664 229.135792 
L 296.01541 229.135792 
" clip-path="url(#pf6b9135b98)" style="fill: none; stroke: #000000"/>
    <path d="M 348.843664 229.135792 
L 325.768681 199.621743 
" clip-path="url(#pf6b9135b98)" style="fill: none; stroke: #000000"/>
    <path d="M 325.768681 199.621743 
L 343.859867 172.963891 
" clip-path="url(#pf6b9135b98)" style="fill: none; stroke: #000000"/>
    <path d="M 325.768681 199.621743 
L 301.298235 165.347362 
" clip-path="url(#pf6b9135b98)" style="fill: none; stroke: #000000"/>
    <path d="M 325.768681 199.621743 
L 296.01541 229.135792 
" clip-path="url(#pf6b9135b98)" style="fill: none; stroke: #000000"/>
    <path d="M 246.326947 239.200491 
L 256.493894 172.963891 
" clip-path="url(#pf6b9135b98)" style="fill: none; stroke: #000000"/>
    <path d="M 246.326947 239.200491 
L 237.655139 284.491636 
" clip-path="url(#pf6b9135b98)" style="fill: none; stroke: #000000"/>
    <path d="M 246.326947 239.200491 
L 198.133624 251.985379 
" clip-path="url(#pf6b9135b98)" style="fill: none; stroke: #000000"/>
    <path d="M 246.326947 239.200491 
L 296.01541 229.135792 
" clip-path="url(#pf6b9135b98)" style="fill: none; stroke: #000000"/>
    <path d="M 195.990591 179.220326 
L 150.837385 172.963891 
" clip-path="url(#pf6b9135b98)" style="fill: none; stroke: #000000"/>
    <path d="M 195.990591 179.220326 
L 198.133624 251.985379 
" clip-path="url(#pf6b9135b98)" style="fill: none; stroke: #000000"/>
    <path d="M 195.990591 179.220326 
L 256.493894 172.963891 
" clip-path="url(#pf6b9135b98)" style="fill: none; stroke: #000000"/>
    <path d="M 314.455461 109.855509 
L 365.090845 118.424104 
" clip-path="url(#pf6b9135b98)" style="fill: none; stroke: #000000"/>
    <path d="M 314.455461 109.855509 
L 301.298235 165.347362 
" clip-path="url(#pf6b9135b98)" style="fill: none; stroke: #000000"/>
    <path d="M 198.133624 251.985379 
L 165.988129 247.225048 
" clip-path="url(#pf6b9135b98)" style="fill: none; stroke: #000000"/>
    <path d="M 198.133624 251.985379 
L 237.655139 284.491636 
" clip-path="url(#pf6b9135b98)" style="fill: none; stroke: #000000"/>
    <path d="M 256.493894 172.963891 
L 301.298235 165.347362 
" clip-path="url(#pf6b9135b98)" style="fill: none; stroke: #000000"/>
    <path d="M 124.473095 192.82127 
L 88.589752 172.963891 
" clip-path="url(#pf6b9135b98)" style="fill: none; stroke: #000000"/>
    <path d="M 124.473095 192.82127 
L 118.542376 221.247244 
" clip-path="url(#pf6b9135b98)" style="fill: none; stroke: #000000"/>
    <path d="M 124.473095 192.82127 
L 150.837385 172.963891 
" clip-path="url(#pf6b9135b98)" style="fill: none; stroke: #000000"/>
    <path d="M 118.542376 221.247244 
L 88.589752 172.963891 
" clip-path="url(#pf6b9135b98)" style="fill: none; stroke: #000000"/>
    <path d="M 118.542376 221.247244 
L 165.988129 247.225048 
" clip-path="url(#pf6b9135b98)" style="fill: none; stroke: #000000"/>
    <path d="M 301.298235 165.347362 
L 343.859867 172.963891 
" clip-path="url(#pf6b9135b98)" style="fill: none; stroke: #000000"/>
    <path d="M 301.298235 165.347362 
L 296.01541 229.135792 
" clip-path="url(#pf6b9135b98)" style="fill: none; stroke: #000000"/>
    <path d="M 280.416123 276.19506 
L 296.01541 229.135792 
" clip-path="url(#pf6b9135b98)" style="fill: none; stroke: #000000"/>
    <path d="M 280.416123 276.19506 
L 237.655139 284.491636 
" clip-path="url(#pf6b9135b98)" style="fill: none; stroke: #000000"/>
    <path d="M 280.416123 276.19506 
L 328.50977 284.491636 
" clip-path="url(#pf6b9135b98)" style="fill: none; stroke: #000000"/>
    <path d="M 365.090845 118.424104 
L 343.859867 172.963891 
" clip-path="url(#pf6b9135b98)" style="fill: none; stroke: #000000"/>
    <path d="M 92.377438 120.192227 
L 118.841404 64.564364 
" clip-path="url(#pf6b9135b98)" style="fill: none; stroke: #000000"/>
    <path d="M 92.377438 120.192227 
L 88.589752 172.963891 
" clip-path="url(#pf6b9135b98)" style="fill: none; stroke: #000000"/>
    <path d="M 150.837385 172.963891 
L 88.589752 172.963891 
" clip-path="url(#pf6b9135b98)" style="fill: none; stroke: #000000"/>
    <path d="M 150.837385 172.963891 
L 165.988129 247.225048 
" clip-path="url(#pf6b9135b98)" style="fill: none; stroke: #000000"/>
   </g>
   <g id="PathCollection_1">
    <defs>
     <path id="m4a8e67e62b" d="M 0 6.324555 
C 1.677292 6.324555 3.286112 5.65816 4.472136 4.472136 
C 5.65816 3.286112 6.324555 1.677292 6.324555 0 
C 6.324555 -1.677292 5.65816 -3.286112 4.472136 -4.472136 
C 3.286112 -5.65816 1.677292 -6.324555 0 -6.324555 
C -1.677292 -6.324555 -3.286112 -5.65816 -4.472136 -4.472136 
C -5.65816 -3.286112 -6.324555 -1.677292 -6.324555 0 
C -6.324555 1.677292 -5.65816 3.286112 -4.472136 4.472136 
C -3.286112 5.65816 -1.677292 6.324555 0 6.324555 
z
" style="stroke: #000000"/>
    </defs>
    <g clip-path="url(#pf6b9135b98)">
     <use xlink:href="#m4a8e67e62b" x="177.700054" y="103.191046" style="fill: #0000ff; stroke: #000000"/>
     <use xlink:href="#m4a8e67e62b" x="383.730248" y="84.013714" style="fill: #0000ff; stroke: #000000"/>
     <use xlink:href="#m4a8e67e62b" x="348.843664" y="229.135792" style="fill: #0000ff; stroke: #000000"/>
     <use xlink:href="#m4a8e67e62b" x="325.768681" y="199.621743" style="fill: #0000ff; stroke: #000000"/>
     <use xlink:href="#m4a8e67e62b" x="246.326947" y="239.200491" style="fill: #0000ff; stroke: #000000"/>
     <use xlink:href="#m4a8e67e62b" x="195.990591" y="179.220326" style="fill: #0000ff; stroke: #000000"/>
     <use xlink:href="#m4a8e67e62b" x="314.455461" y="109.855509" style="fill: #0000ff; stroke: #000000"/>
     <use xlink:href="#m4a8e67e62b" x="198.133624" y="251.985379" style="fill: #0000ff; stroke: #000000"/>
     <use xlink:href="#m4a8e67e62b" x="256.493894" y="172.963891" style="fill: #0000ff; stroke: #000000"/>
     <use xlink:href="#m4a8e67e62b" x="124.473095" y="192.82127" style="fill: #0000ff; stroke: #000000"/>
     <use xlink:href="#m4a8e67e62b" x="118.542376" y="221.247244" style="fill: #0000ff; stroke: #000000"/>
     <use xlink:href="#m4a8e67e62b" x="301.298235" y="165.347362" style="fill: #0000ff; stroke: #000000"/>
     <use xlink:href="#m4a8e67e62b" x="280.416123" y="276.19506" style="fill: #0000ff; stroke: #000000"/>
     <use xlink:href="#m4a8e67e62b" x="365.090845" y="118.424104" style="fill: #0000ff; stroke: #000000"/>
     <use xlink:href="#m4a8e67e62b" x="92.377438" y="120.192227" style="fill: #0000ff; stroke: #000000"/>
     <use xlink:href="#m4a8e67e62b" x="237.655139" y="284.491636" style="fill: #0000ff; stroke: #000000"/>
     <use xlink:href="#m4a8e67e62b" x="88.589752" y="172.963891" style="fill: #0000ff; stroke: #000000"/>
     <use xlink:href="#m4a8e67e62b" x="118.841404" y="64.564364" style="fill: #0000ff; stroke: #000000"/>
     <use xlink:href="#m4a8e67e62b" x="328.50977" y="284.491636" style="fill: #0000ff; stroke: #000000"/>
     <use xlink:href="#m4a8e67e62b" x="165.988129" y="247.225048" style="fill: #0000ff; stroke: #000000"/>
     <use xlink:href="#m4a8e67e62b" x="343.859867" y="172.963891" style="fill: #0000ff; stroke: #000000"/>
    </g>
   </g>
   <g id="PathCollection_2">
    <defs>
     <path id="m1c40d9ff37" d="M -7.071068 7.071068 
L 7.071068 7.071068 
L 7.071068 -7.071068 
L -7.071068 -7.071068 
z
" style="stroke: #000000"/>
    </defs>
    <g clip-path="url(#pf6b9135b98)">
     <use xlink:href="#m1c40d9ff37" x="231.375554" y="109.855509" style="fill: #ff0000; stroke: #000000"/>
     <use xlink:href="#m1c40d9ff37" x="296.01541" y="229.135792" style="fill: #ff0000; stroke: #000000"/>
     <use xlink:href="#m1c40d9ff37" x="150.837385" y="172.963891" style="fill: #ff0000; stroke: #000000"/>
    </g>
   </g>
   <g id="legend_1">
    <g id="patch_2">
     <path d="M 349.618438 78.82825 
L 407.72 78.82825 
Q 409.72 78.82825 409.72 76.82825 
L 409.72 48.472 
Q 409.72 46.472 407.72 46.472 
L 349.618438 46.472 
Q 347.618438 46.472 347.618438 48.472 
L 347.618438 76.82825 
Q 347.618438 78.82825 349.618438 78.82825 
z
" style="fill: #ffffff; opacity: 0.8; stroke: #cccccc; stroke-linejoin: miter"/>
    </g>
    <g id="PathCollection_3">
     <g>
      <use xlink:href="#m4a8e67e62b" x="361.618438" y="55.445437" style="fill: #0000ff; stroke: #000000"/>
     </g>
    </g>
    <g id="text_1">
     <!-- Node -->
     <g transform="translate(379.618438 58.070437)scale(0.1 -0.1)">
      <defs>
       <path id="DejaVuSans-4e" d="M 628 4666 
L 1478 4666 
L 3547 763 
L 3547 4666 
L 4159 4666 
L 4159 0 
L 3309 0 
L 1241 3903 
L 1241 0 
L 628 0 
L 628 4666 
z
" transform="scale(0.015625)"/>
       <path id="DejaVuSans-6f" d="M 1959 3097 
Q 1497 3097 1228 2736 
Q 959 2375 959 1747 
Q 959 1119 1226 758 
Q 1494 397 1959 397 
Q 2419 397 2687 759 
Q 2956 1122 2956 1747 
Q 2956 2369 2687 2733 
Q 2419 3097 1959 3097 
z
M 1959 3584 
Q 2709 3584 3137 3096 
Q 3566 2609 3566 1747 
Q 3566 888 3137 398 
Q 2709 -91 1959 -91 
Q 1206 -91 779 398 
Q 353 888 353 1747 
Q 353 2609 779 3096 
Q 1206 3584 1959 3584 
z
" transform="scale(0.015625)"/>
       <path id="DejaVuSans-64" d="M 2906 2969 
L 2906 4863 
L 3481 4863 
L 3481 0 
L 2906 0 
L 2906 525 
Q 2725 213 2448 61 
Q 2172 -91 1784 -91 
Q 1150 -91 751 415 
Q 353 922 353 1747 
Q 353 2572 751 3078 
Q 1150 3584 1784 3584 
Q 2172 3584 2448 3432 
Q 2725 3281 2906 2969 
z
M 947 1747 
Q 947 1113 1208 752 
Q 1469 391 1925 391 
Q 2381 391 2643 752 
Q 2906 1113 2906 1747 
Q 2906 2381 2643 2742 
Q 2381 3103 1925 3103 
Q 1469 3103 1208 2742 
Q 947 2381 947 1747 
z
" transform="scale(0.015625)"/>
       <path id="DejaVuSans-65" d="M 3597 1894 
L 3597 1613 
L 953 1613 
Q 991 1019 1311 708 
Q 1631 397 2203 397 
Q 2534 397 2845 478 
Q 3156 559 3463 722 
L 3463 178 
Q 3153 47 2828 -22 
Q 2503 -91 2169 -91 
Q 1331 -91 842 396 
Q 353 884 353 1716 
Q 353 2575 817 3079 
Q 1281 3584 2069 3584 
Q 2775 3584 3186 3129 
Q 3597 2675 3597 1894 
z
M 3022 2063 
Q 3016 2534 2758 2815 
Q 2500 3097 2075 3097 
Q 1594 3097 1305 2825 
Q 1016 2553 972 2059 
L 3022 2063 
z
" transform="scale(0.015625)"/>
      </defs>
      <use xlink:href="#DejaVuSans-4e"/>
      <use xlink:href="#DejaVuSans-6f" x="74.804688"/>
      <use xlink:href="#DejaVuSans-64" x="135.986328"/>
      <use xlink:href="#DejaVuSans-65" x="199.462891"/>
     </g>
    </g>
    <g id="PathCollection_4">
     <g>
      <use xlink:href="#m1c40d9ff37" x="361.618438" y="70.123562" style="fill: #ff0000; stroke: #000000"/>
     </g>
    </g>
    <g id="text_2">
     <!-- DC -->
     <g transform="translate(379.618438 72.748562)scale(0.1 -0.1)">
      <defs>
       <path id="DejaVuSans-44" d="M 1259 4147 
L 1259 519 
L 2022 519 
Q 2988 519 3436 956 
Q 3884 1394 3884 2338 
Q 3884 3275 3436 3711 
Q 2988 4147 2022 4147 
L 1259 4147 
z
M 628 4666 
L 1925 4666 
Q 3281 4666 3915 4102 
Q 4550 3538 4550 2338 
Q 4550 1131 3912 565 
Q 3275 0 1925 0 
L 628 0 
L 628 4666 
z
" transform="scale(0.015625)"/>
       <path id="DejaVuSans-43" d="M 4122 4306 
L 4122 3641 
Q 3803 3938 3442 4084 
Q 3081 4231 2675 4231 
Q 1875 4231 1450 3742 
Q 1025 3253 1025 2328 
Q 1025 1406 1450 917 
Q 1875 428 2675 428 
Q 3081 428 3442 575 
Q 3803 722 4122 1019 
L 4122 359 
Q 3791 134 3420 21 
Q 3050 -91 2638 -91 
Q 1578 -91 968 557 
Q 359 1206 359 2328 
Q 359 3453 968 4101 
Q 1578 4750 2638 4750 
Q 3056 4750 3426 4639 
Q 3797 4528 4122 4306 
z
" transform="scale(0.015625)"/>
      </defs>
      <use xlink:href="#DejaVuSans-44"/>
      <use xlink:href="#DejaVuSans-43" x="77.001953"/>
     </g>
    </g>
   </g>
  </g>
 </g>
 <defs>
  <clipPath id="pf6b9135b98">
   <rect x="57.6" y="41.472" width="357.12" height="266.112"/>
  </clipPath>
 </defs>
</svg>
